<svg width="640" height="100" xmlns="http://www.w3.org/2000/svg" version="1.1">
 <metadata id="metadata88764">image/svg+xml</metadata>

 <g>
  <title>Layer 1</title>
  <g id="logo-group">
   <g id="title" font-style="normal" font-weight="400" font-size="72px" font-family="'Blackout 2AM'" text-anchor="middle">
    <path id="path88766" d="m102.3088,63.89818l0,1.075c-0.15357,1.84285 -0.69107,3.60892 -1.6125,5.22142c-0.92143,1.6125 -2.22678,2.99464 -3.91606,4.2232c-1.68928,1.22857 -3.68571,2.14999 -5.98927,2.84106c-2.38035,0.69107 -5.06785,0.99821 -7.9857,0.99821c-2.30357,0 -4.53035,-0.30714 -6.52677,-0.92143c-1.99642,-0.61428 -3.83928,-1.45893 -5.45177,-2.61071c-1.68928,-1.075 -3.07142,-2.45714 -4.2232,-4.06963c-1.15178,-1.6125 -1.99642,-3.45535 -2.45714,-5.52856l12.28569,-5.14463c-0.15357,0.07679 0,0.46071 0.30714,1.075c0.30714,0.69107 0.84464,1.38214 1.45893,2.14999c0.61428,0.76786 1.30535,1.38214 2.22678,1.99642c0.92143,0.61428 1.84285,0.76786 2.91785,0.61428c0.84464,-0.07679 1.68928,-0.46071 2.53392,-1.15178c0.84464,-0.61428 1.22857,-1.68928 1.22857,-3.14821c-0.07679,-0.84464 -0.46071,-1.6125 -1.075,-2.38035c-0.61428,-0.76786 -1.53571,-1.53571 -2.68749,-2.38035c-2.61071,-1.68928 -5.06785,-3.22499 -7.29463,-4.53035c-2.22678,-1.30535 -4.14642,-2.68749 -5.8357,-4.14642c-1.68928,-1.38214 -2.99464,-2.99464 -3.91606,-4.83749c-0.92143,-1.76607 -1.38214,-3.99285 -1.38214,-6.75713c0,-2.45714 0.46071,-4.68392 1.53571,-6.60356c0.99821,-1.84285 2.38035,-3.45535 4.06963,-4.7607c1.68928,-1.22857 3.60892,-2.22678 5.8357,-2.91785c2.14999,-0.61428 4.45356,-0.99821 6.83391,-1.075c2.76428,0 5.22142,0.46071 7.37141,1.22857c2.14999,0.76786 3.91606,1.76607 5.37499,2.99464c1.45893,1.22857 2.61071,2.68749 3.45535,4.2232c0.76786,1.53571 1.30535,3.07142 1.6125,4.60713l-11.28747,4.45356c-0.15357,-0.5375 -0.38393,-1.15178 -0.69107,-1.84285c-0.30714,-0.69107 -0.76786,-1.30535 -1.30535,-1.91964c-0.5375,-0.61428 -1.15178,-1.075 -1.91964,-1.53571c-0.76786,-0.38393 -1.6125,-0.61428 -2.53392,-0.61428c-1.075,0 -1.99642,0.38393 -2.84106,0.99821c-0.84464,0.61428 -1.22857,1.6125 -1.22857,2.84106c0,0.99821 0.38393,1.84285 1.15178,2.61071c0.76786,0.76786 2.07321,1.68928 3.76249,2.91785c2.30357,1.38214 4.60713,2.68749 6.75713,3.99285c2.14999,1.38214 4.14642,2.84106 5.8357,4.53035c1.68928,1.68928 2.99464,3.60892 4.06963,5.75891c0.99821,2.14999 1.53571,4.60713 1.53571,7.52498l-0.00001,0.00003zm-42.30883,-54.05702l0,80.31767l46.83918,0l0,-80.31767l-46.83918,0z" fill=" rgb(0, 0, 0)"/>
    <path id="path88768" d="m156.93436,21.12864l0,12.89997l-22.11423,0l0,9.21426l16.27853,0l0,12.89997l-16.27853,0l0,9.21426l22.11423,0l0,12.89997l-35.0142,0l0,-57.12844l35.0142,0l0,0.00001zm-39.92848,-11.28747l0,80.31767l44.91954,0l0,-80.31767l-44.91954,0z" fill=" rgb(0, 0, 0)"/>
    <path id="path88770" d="m196.9551,65.58746c2.14999,0.15357 3.99286,-0.38393 5.45177,-1.68928c1.45893,-1.22857 2.61071,-2.76428 3.37857,-4.60713l11.1339,6.21963c-0.46072,0.92143 -1.15178,2.14999 -1.99643,3.53213c-0.84463,1.45893 -1.99642,2.84106 -3.53213,4.2232c-1.53571,1.38214 -3.53212,2.61071 -5.91249,3.60892c-2.38035,0.99821 -5.2982,1.45893 -8.75355,1.45893l-0.07679,0c-3.91606,0 -7.21784,-0.61428 -9.82854,-1.84285c-2.61072,-1.22857 -4.7607,-2.84106 -6.44998,-4.91427c-1.68928,-2.07321 -2.84108,-4.45356 -3.60893,-7.21784c-0.76786,-2.76428 -1.22856,-5.60534 -1.38213,-8.59998l0,-11.82497c0,-2.76428 0.4607,-5.52856 1.38213,-8.29284c0.92143,-2.76428 2.22678,-5.22142 3.99285,-7.37141c1.76607,-2.14999 3.99285,-3.83928 6.68034,-5.14463c2.61072,-1.30535 5.75893,-1.99642 9.29105,-1.99642l0.07679,0c3.07142,0 5.75893,0.46071 8.06248,1.30535c2.22678,0.92143 4.14643,1.99642 5.75893,3.37856c1.6125,1.38214 2.91784,2.99464 3.91605,4.68392c0.99822,1.76607 1.76607,3.53213 2.38036,5.22142l-11.1339,6.21963c-0.30715,-0.92143 -0.76787,-1.84285 -1.30535,-2.84106c-0.53751,-0.92143 -1.15179,-1.84285 -1.91964,-2.61071c-0.76787,-0.76786 -1.68929,-1.38214 -2.61072,-1.84285c-0.99821,-0.46071 -1.99641,-0.61428 -3.07142,-0.61428c-2.61071,0.23036 -4.7607,1.30535 -6.29641,3.14821c-1.53571,1.84285 -2.30356,4.2232 -2.30356,6.98748l0,11.1339c0,2.84106 0.76784,5.22142 2.38034,7.14105c1.53571,1.91964 3.68571,2.99464 6.29641,3.14821l0,-0.00002zm-25.56958,-55.7463l0,80.31767l51.36952,0l0,-80.31767l-51.36952,0z" fill=" rgb(0, 0, 0)"/>
    <path id="path88772" d="m236.20316,21.12864l38.85349,0l0,12.89997l-12.97676,0l0,44.22847l-12.89997,0l0,-44.22847l-12.97677,0l0,-12.89997l0.00001,0zm-3.68571,-11.28747l0,80.31767l46.83918,0l0,-80.31767l-46.83918,0z" fill=" rgb(0, 0, 0)"/>
    <path id="path88774" d="m305.98788,21.12864l0,57.12844l-12.89997,0l0,-57.12844l12.89997,0zm-17.81424,-11.28747l0,80.31767l23.03566,0l0,-80.31767l-23.03566,0z" fill=" rgb(0, 0, 0)"/>
    <path id="path88776" d="m368.33397,42.16787l0,13.36068c0,2.76428 -0.46071,5.60534 -1.30534,8.44641c-0.84465,2.84106 -2.30357,5.2982 -4.3,7.4482c-2.14998,2.30357 -4.53035,3.99285 -7.21784,5.14463c-2.68749,1.22857 -5.52856,1.76607 -8.52319,1.76607l-0.07679,0c-2.99464,0 -5.83569,-0.5375 -8.52318,-1.76607c-2.68749,-1.15178 -5.06786,-2.84106 -7.21785,-5.06785c-1.99641,-2.14999 -3.45535,-4.53035 -4.29999,-7.29463c-0.84463,-2.68749 -1.30534,-5.60534 -1.30534,-8.67677l0,-13.36068c0,-2.45714 0.46071,-4.91427 1.45891,-7.4482c0.92143,-2.53392 2.30358,-4.7607 4.14642,-6.75713c2.14999,-2.14999 4.53036,-3.83928 7.21785,-5.06785c2.61071,-1.15178 5.45176,-1.76607 8.52318,-1.76607l0.07679,0c2.99464,0 5.8357,0.61428 8.52319,1.76607c2.68749,1.22857 5.06786,2.91785 7.21784,5.06785c1.84286,1.99642 3.22499,4.14642 4.14643,6.60356c0.92142,2.45714 1.38213,4.99106 1.45891,7.60177l0,0.00001zm-47.29989,-32.32671l0,80.31767l51.44631,0l0,-80.31767l-51.44631,0z" fill=" rgb(0, 0, 0)"/>
    <path id="path88778" d="m415.0303,49.15536l0,-28.02672l13.66781,0l0,57.12844l-13.05353,0l-15.35712,-28.10351l0,28.10351l-13.66781,0l0,-57.12844l13.13033,0l15.28032,28.02672zm-32.941,-39.31419l0,80.31767l50.98559,0l0,-80.31767l-50.98559,0z" fill=" rgb(0, 0, 0)"/>
    <path id="path88780" d="m469.94985,21.12864l15.97139,0l-21.2696,28.641l21.19282,28.48743l-15.97139,0l-9.21426,-12.36247l0,12.36247l-12.89997,0l0,-57.12844l12.89997,0l0,13.2839l9.29105,-13.2839l-0.00001,0.00001zm-27.1053,-11.28747l0,80.31767l48.75882,0l0,-80.31767l-48.75882,0z" fill=" rgb(0, 0, 0)"/>
    <path id="path88782" d="m519.16441,21.12864l0,57.12844l-12.89997,0l0,-57.12844l12.89997,0zm-17.81424,-11.28747l0,80.31767l23.03566,0l0,-80.31767l-23.03566,0z"/>
    <path id="path88784" d="m536.84653,21.12864l38.85349,0l0,12.89997l-12.97676,0l0,44.22847l-12.89997,0l0,-44.22847l-12.97677,0l0,-12.89997l0.00001,0zm-3.68571,-11.28747l0,80.31767l46.83918,0l0,-80.31767l-46.83918,0z"/>
   </g>
   <g id="tagline" font-style="normal" font-weight="500" font-size="32px" font-family="Montserrat" text-anchor="middle"/>
  </g>
 </g>
</svg>